<svg width="32" height="30" viewBox="0 0 32 30" fill="none" xmlns="http://www.w3.org/2000/svg">
<path fill-rule="evenodd" clip-rule="evenodd" d="M4.76329 6.68842C4.6622 6.365 4.36117 6.13843 4.01452 6.13843H0.923287L0.824867 6.14454C0.437991 6.19296 0.138672 6.52305 0.138672 6.92304L0.144785 7.02146C0.193201 7.40834 0.523289 7.70766 0.923287 7.70766H3.35467L5.8176 21.8271L5.84178 21.9269C5.94287 22.2503 6.2439 22.4769 6.59055 22.4769H21.0163L21.1179 22.4703C21.4511 22.427 21.7248 22.1736 21.7877 21.8358L23.8485 10.7589L23.8604 10.663C23.8884 10.2189 23.5352 9.83074 23.0771 9.83074H5.31806L4.78747 6.78823L4.76329 6.68842ZM5.59129 11.4H22.1328L20.3633 20.9077H7.24913L5.59129 11.4ZM4.77552 26.967C4.77552 25.3725 6.04528 24.0725 7.62096 24.0725C9.19664 24.0725 10.4664 25.3725 10.4664 26.967C10.4664 28.5615 9.19664 29.8615 7.62096 29.8615C6.04528 29.8615 4.77552 28.5615 4.77552 26.967ZM8.89717 26.967C8.89717 26.231 8.32161 25.6417 7.62096 25.6417C6.92032 25.6417 6.34475 26.231 6.34475 26.967C6.34475 27.703 6.92032 28.2923 7.62096 28.2923C8.32161 28.2923 8.89717 27.703 8.89717 26.967ZM19.9859 24.0725C18.4102 24.0725 17.1405 25.3725 17.1405 26.967C17.1405 28.5615 18.4102 29.8615 19.9859 29.8615C21.5616 29.8615 22.8313 28.5615 22.8313 26.967C22.8313 25.3725 21.5616 24.0725 19.9859 24.0725ZM19.9859 25.6417C20.6865 25.6417 21.2621 26.231 21.2621 26.967C21.2621 27.703 20.6865 28.2923 19.9859 28.2923C19.2853 28.2923 18.7097 27.703 18.7097 26.967C18.7097 26.231 19.2853 25.6417 19.9859 25.6417Z" fill="#3F3B3B"/>
<path fill-rule="evenodd" clip-rule="evenodd" d="M23.5 17C28.1944 17 32 13.1944 32 8.5C32 3.80558 28.1944 0 23.5 0C18.8056 0 15 3.80558 15 8.5C15 13.1944 18.8056 17 23.5 17Z" fill="#4A785A"/>
<path d="M20.9857 13H25.9457V11.76H24.3457C23.9957 11.76 23.5057 11.8 23.1357 11.84C24.4857 10.52 25.5957 9.08 25.5957 7.74C25.5957 6.36 24.6657 5.46 23.2657 5.46C22.2557 5.46 21.5957 5.85 20.9157 6.58L21.7157 7.38C22.0957 6.97 22.5357 6.62 23.0757 6.62C23.7857 6.62 24.1857 7.07 24.1857 7.82C24.1857 8.96 22.9957 10.35 20.9857 12.15V13Z" fill="white"/>
</svg>
