<svg width="23" height="24" viewBox="0 0 23 24" fill="none" xmlns="http://www.w3.org/2000/svg">
<path fill-rule="evenodd" clip-rule="evenodd" d="M22.5 19.875C20.85 19.875 19.5 18.525 19.5 16.875V10.5C19.5 6.7125 16.95 3.5625 13.5 2.55V2.25C13.5 1.0125 12.4875 0 11.25 0C10.0125 0 9 1.0125 9 2.25V2.55C5.55 3.5625 3 6.7125 3 10.5V16.875C3 18.525 1.65 19.875 0 19.875V21.375H7.95C8.2875 22.875 9.6375 24 11.25 24C12.8625 24 14.2125 22.875 14.55 21.375H22.5V19.875ZM10.5 2.25C10.5 1.8375 10.8375 1.5 11.25 1.5C11.6625 1.5 12 1.8375 12 2.25V2.2875C11.7375 2.25 11.5125 2.25 11.25 2.25C10.9875 2.25 10.7625 2.25 10.5 2.25ZM11.25 22.5C10.5 22.5 9.825 22.05 9.525 21.375H12.975C12.675 22.05 12 22.5 11.25 22.5ZM3.3375 19.875C4.05 19.0875 4.5 18.0375 4.5 16.875V10.5C4.5 6.7875 7.5375 3.75 11.25 3.75C14.9625 3.75 18 6.7875 18 10.5V16.875C18 18.0375 18.45 19.0875 19.1625 19.875H3.3375Z" fill="#3F3B3B"/>
</svg>
